# xmcd CD database file
#
# Track frame offsets:
#	150
#	25631
#	47406
#	71015
#	92994
#	114560
#	133247
#	152950
#	174952
#	195421
#	218810
#	242202
#	266268
#	286146
#
# Disc length: 4122 seconds
#
# Revision: 1
# Processed by: cddbd v1.5.1PL0 Copyright (c) Steve Scherf et al.
# Submitted via: CDex 1.51
#
DISCID=c110180e
DTITLE=Southern All Stars - BALLAD 3 ~the album of LOVE~ disc2
DYEAR=1900
DGENRE=
TTITLE0=愛の言霊 ~Spirtual Message~
TTITLE1=BLUE HEAVEN
TTITLE2=あなただけを~Summer Heartbreak~
TTITLE3=MOON LIGHT LOVER
TTITLE4=愛無き愛児~Before The Stome~
TTITLE5=心を込めて花束を
TTITLE6=唐人物語
TTITLE7=SAUDADE ~真冬の蜃気楼~
TTITLE8=湘南SEPTEMBER
TTITLE9=TSUNAMI
TTITLE10=夏の日のドラマ
TTITLE11=LOVE AFFAIR ~秘密のデート~
TTITLE12=SEA SIDE WOMAN BLUES
TTITLE13=素敵な夢を叶えましょう
EXTD=
EXTT0=
EXTT1=
EXTT2=
EXTT3=
EXTT4=
EXTT5=
EXTT6=
EXTT7=
EXTT8=
EXTT9=
EXTT10=
EXTT11=
EXTT12=
EXTT13=
PLAYORDER=
